<?xml version="1.0" standalone="no"?>
<!DOCTYPE svg PUBLIC "-//W3C//DTD SVG 20010904//EN"
 "http://www.w3.org/TR/2001/REC-SVG-20010904/DTD/svg10.dtd">
<svg version="1.0" xmlns="http://www.w3.org/2000/svg"
 width="1024.000000pt" height="1024.000000pt" viewBox="0 0 1024.000000 1024.000000"
 preserveAspectRatio="xMidYMid meet">
<metadata>
Created by potrace 1.11, written by Peter Selinger 2001-2013
</metadata>
<g transform="translate(0.000000,1024.000000) scale(0.100000,-0.100000)"
fill="#000000" stroke="none">
<path d="M4772 9634 c-97 -26 -171 -80 -218 -160 l-25 -42 -107 -6 c-556 -32
-838 -57 -1132 -102 -314 -47 -389 -73 -445 -154 -44 -64 -43 -100 19 -450 30
-173 112 -646 180 -1050 203 -1192 194 -1147 248 -1197 30 -28 89 -53 126 -53
16 0 99 11 185 25 921 144 1946 149 2872 14 284 -42 297 -43 339 -29 45 15 92
53 112 92 21 41 31 92 224 1224 94 550 182 1059 195 1133 34 186 33 227 -7
287 -45 65 -108 98 -238 123 -312 61 -729 104 -1343 137 l-118 6 -18 37 c-23
45 -95 112 -148 139 -62 32 -144 45 -208 33 -58 -11 -126 -38 -159 -63 -17
-14 -24 -12 -65 13 -48 29 -146 59 -191 58 -14 0 -49 -7 -78 -15z m315 -176
c-3 -7 -5 -2 -5 12 0 14 2 19 5 13 2 -7 2 -19 0 -25z m1173 -248 c194 -18 710
-81 733 -89 12 -5 33 -21 46 -35 43 -45 25 -151 -31 -190 -30 -21 -82 -20
-333 8 -115 13 -212 22 -214 20 -6 -6 -54 -474 -49 -480 3 -2 76 -11 164 -20
87 -8 173 -21 191 -29 87 -38 81 -198 -9 -242 -21 -10 -59 -10 -202 3 -97 9
-178 15 -180 13 -2 -2 -29 -231 -60 -508 -42 -374 -62 -512 -74 -533 -9 -16
-36 -38 -60 -49 -41 -20 -48 -21 -175 -9 -150 14 -182 24 -221 71 -28 33 -28
35 -23 129 3 52 26 320 52 595 25 275 61 677 80 893 l33 394 28 29 c31 32 89
49 149 43 22 -2 92 -8 155 -14z m-2575 -59 c57 -32 60 -46 120 -531 93 -766
163 -1311 166 -1315 2 -2 105 6 227 18 199 19 227 19 250 6 58 -32 80 -135 42
-196 -24 -39 -52 -48 -220 -63 -69 -6 -246 -24 -395 -41 -148 -16 -283 -27
-300 -23 -47 10 -93 50 -105 92 -20 72 -272 1887 -267 1925 6 42 35 80 80 104
37 19 280 53 332 46 22 -3 53 -13 70 -22z m1610 -673 c17 -9 39 -26 50 -38 20
-22 20 -34 16 -633 -2 -337 -7 -622 -12 -634 -19 -50 -49 -58 -242 -61 -196
-4 -248 6 -277 50 -12 19 -15 121 -20 618 -3 327 -2 609 2 627 10 37 56 73
107 84 20 4 106 7 191 5 119 -2 162 -6 185 -18z m-367 -1520 c13 -17 25 -249
14 -266 -5 -8 -20 -12 -33 -10 -21 3 -25 10 -31 53 -3 28 -7 87 -7 132 -1 68
2 84 17 92 23 14 28 13 40 -1z m130 3 c7 -4 38 -46 67 -92 l54 -84 3 84 c2 65
7 86 20 94 12 8 21 7 32 -2 13 -11 16 -36 16 -128 0 -126 -8 -153 -46 -153
-20 0 -35 16 -84 92 l-59 93 -3 -90 c-3 -78 -5 -90 -22 -93 -10 -2 -22 0 -26
5 -5 4 -10 66 -12 136 -2 105 0 129 12 137 18 12 31 12 48 1z m-250 -13 c29
-29 -2 -108 -43 -108 -22 0 -18 19 8 41 l22 18 -22 1 c-17 0 -23 6 -23 23 0
13 3 27 7 30 10 11 38 8 51 -5z m820 -4 c7 -2 12 -14 10 -26 -3 -22 -7 -23
-75 -21 l-73 2 0 -29 c0 -30 1 -30 54 -30 62 0 88 -19 65 -46 -10 -12 -26 -15
-66 -12 l-53 5 0 -42 c0 -49 -19 -79 -46 -73 -17 3 -19 14 -22 118 -3 131 1
157 25 162 22 4 164 -2 181 -8z m-923 -19 c0 -17 -10 -21 -75 -29 -41 -5 -77
-10 -78 -12 -2 -1 -1 -12 3 -23 6 -18 14 -21 70 -21 45 0 64 -4 68 -14 9 -23
-14 -35 -73 -38 -52 -3 -55 -5 -58 -30 l-3 -28 76 0 c61 0 77 -3 82 -16 12
-31 -25 -44 -118 -44 -57 0 -90 4 -96 13 -6 6 -13 65 -17 129 -8 142 -11 139
124 135 88 -2 95 -4 95 -22z m1114 -54 c59 -200 61 -221 21 -221 -15 0 -26 11
-36 35 -13 33 -17 35 -62 35 -44 0 -48 -2 -59 -31 -9 -24 -17 -30 -35 -27 -15
2 -24 11 -26 24 -4 30 98 252 117 257 46 9 61 -4 80 -72z m-1372 53 c5 -14
-49 -215 -69 -256 -5 -11 -20 -18 -39 -18 -28 0 -32 6 -80 108 -61 129 -68
159 -44 168 30 12 49 -10 87 -102 l36 -88 12 44 c6 25 16 63 21 85 6 22 12 48
15 58 7 22 52 23 61 1z m1672 -23 c45 -24 54 -79 18 -115 -19 -19 -20 -25 -9
-35 8 -8 12 -31 10 -64 -3 -50 -4 -52 -33 -52 -28 0 -30 3 -35 47 -3 26 -8 49
-11 52 -3 3 -24 8 -47 12 l-42 7 0 -45 c0 -51 -18 -73 -50 -63 -16 5 -20 15
-19 53 1 100 17 206 32 217 18 13 154 3 186 -14z m-1981 -7 c79 -51 83 -183 7
-242 -54 -42 -149 -37 -193 11 -28 30 -46 98 -38 141 18 94 141 143 224 90z
m2151 -8 c6 -7 19 -55 28 -105 l16 -91 42 88 c23 49 49 91 56 94 27 9 64 -7
67 -30 6 -38 -28 -236 -43 -251 -12 -12 -17 -12 -30 -1 -14 12 -16 25 -10 79
4 35 9 72 12 80 2 9 -14 -19 -37 -62 -62 -118 -89 -116 -111 11 -11 67 -14 73
-21 47 -4 -16 -10 -51 -13 -77 -6 -50 -28 -69 -52 -45 -12 12 -12 32 -3 123
14 137 21 154 59 154 16 0 34 -6 40 -14z m-2551 -33 c5 -10 13 -47 16 -83 14
-124 10 -117 73 -109 64 9 83 4 83 -21 0 -26 -7 -29 -100 -41 -60 -8 -85 -8
-93 0 -17 17 -48 242 -35 258 15 19 46 16 56 -4z"/>
<path d="M5743 6834 c-6 -16 -14 -37 -18 -46 -6 -15 -2 -18 24 -18 29 0 31 2
25 28 -16 63 -20 68 -31 36z"/>
<path d="M5986 6863 c-3 -4 -6 -19 -6 -35 0 -27 2 -28 50 -28 54 0 76 20 49
45 -15 14 -84 27 -93 18z"/>
<path d="M4005 6835 c-27 -26 -31 -55 -14 -104 12 -35 35 -51 73 -51 41 0 66
33 66 85 0 54 -33 95 -75 95 -14 0 -37 -11 -50 -25z"/>
<path d="M4690 5849 c-1383 -65 -2796 -375 -4105 -901 -257 -104 -329 -151
-393 -258 -61 -105 -68 -276 -17 -445 45 -146 195 -566 223 -624 50 -101 135
-177 219 -195 l32 -7 75 -232 c89 -276 220 -690 266 -838 l32 -106 -26 -39
c-38 -58 -52 -140 -38 -228 15 -97 202 -664 253 -765 43 -86 116 -174 183
-221 81 -55 1074 -579 1120 -591 74 -18 166 -5 376 54 454 128 940 222 1421
276 361 41 474 46 964 45 418 0 508 -3 699 -22 562 -56 1071 -156 1521 -298
201 -63 242 -70 321 -57 62 11 158 59 1104 549 14 7 50 24 81 37 62 27 128 81
158 130 11 18 60 151 109 297 49 146 108 319 132 385 63 178 64 258 5 415
l-17 45 227 715 c125 393 281 884 346 1090 93 289 121 392 126 450 10 140 -30
255 -125 349 -68 69 -110 91 -331 178 -1170 459 -2515 742 -3871 813 -220 11
-820 11 -1070 -1z m1300 -148 c689 -48 1173 -123 1910 -292 646 -148 1455
-398 1822 -562 109 -49 180 -136 213 -264 24 -91 48 -4 -316 -1137 -274 -848
-389 -1216 -389 -1235 0 -9 7 -25 16 -36 21 -28 54 -140 54 -184 0 -49 -12
-88 -137 -451 -58 -167 -116 -321 -129 -341 -46 -74 -134 -119 -228 -119 -32
0 -107 17 -201 45 -209 63 -913 237 -1135 280 -344 66 -894 139 -1415 187
-225 20 -307 22 -815 22 -582 1 -769 -7 -1150 -45 -112 -11 -220 -17 -239 -14
-59 11 -110 43 -231 144 -63 53 -169 139 -235 191 -147 116 -708 530 -712 526
-2 -1 40 -160 93 -352 108 -395 113 -435 72 -525 -29 -61 -93 -138 -141 -167
-18 -11 -174 -56 -347 -100 -173 -44 -413 -108 -534 -142 -189 -54 -225 -61
-270 -56 -103 14 -196 85 -229 177 -61 171 -218 635 -228 673 -19 76 6 179 59
239 14 16 14 23 -2 75 -45 148 -218 689 -312 977 l-104 321 -55 11 c-65 14
-137 61 -170 111 -13 20 -76 192 -141 381 -110 325 -116 347 -112 405 7 84 35
134 126 225 l77 77 230 91 c720 285 1314 465 2045 622 578 123 1297 214 1980
251 212 11 1078 5 1280 -9z"/>
<path d="M4705 5593 c-224 -14 -530 -38 -734 -59 -201 -20 -250 -28 -277 -45
-42 -26 -74 -69 -80 -111 -6 -37 90 -738 107 -779 23 -57 88 -99 155 -99 19 0
34 -3 34 -6 0 -4 16 -131 35 -283 19 -152 59 -479 89 -727 31 -248 60 -462 65
-475 13 -34 62 -78 100 -89 20 -5 75 -5 144 0 520 43 1313 41 1822 -6 183 -16
208 -14 253 29 13 12 30 34 38 48 13 26 126 790 126 859 1 49 -25 95 -73 130
-22 16 -45 30 -51 32 -7 3 0 83 21 240 17 130 31 240 31 245 0 5 18 9 39 9 46
2 95 28 123 64 24 32 46 154 94 521 l37 286 -19 39 c-31 63 -83 91 -199 108
-235 35 -603 62 -965 72 l-235 6 -41 -31 c-73 -54 -72 -51 -80 -482 -7 -358
-6 -387 11 -422 24 -50 78 -87 129 -87 l39 0 -6 -182 c-4 -99 -7 -214 -7 -255
l0 -73 -218 0 -219 0 -6 143 c-4 78 -7 193 -7 255 l0 112 33 0 c41 0 92 31
117 72 19 31 20 51 19 393 0 198 -4 382 -8 408 -10 58 -35 95 -87 124 -35 21
-51 23 -169 21 -71 -1 -152 -3 -180 -5z m305 -206 c0 -74 3 -242 7 -375 l6
-241 -94 -3 c-55 -2 -93 -7 -92 -13 1 -5 4 -129 7 -275 4 -146 9 -316 12 -377
l6 -113 343 0 343 0 6 28 c2 15 8 171 11 347 3 176 8 339 12 363 l5 42 -96 0
-96 0 0 133 c0 74 3 243 7 376 l6 241 151 -5 c459 -17 767 -39 1001 -71 60 -9
110 -16 111 -17 1 -1 -7 -58 -17 -127 -10 -69 -32 -224 -49 -344 -17 -121 -33
-229 -36 -241 -5 -20 -8 -21 -86 -12 -44 4 -82 7 -83 5 -2 -2 -24 -165 -49
-363 -25 -198 -48 -370 -50 -382 -3 -21 2 -22 75 -29 44 -4 79 -9 79 -13 -2
-29 -117 -822 -121 -825 -2 -2 -67 2 -144 10 -502 47 -1421 49 -1875 4 -47 -4
-86 -7 -88 -5 -2 1 -30 223 -63 491 -71 588 -127 1037 -136 1082 l-6 34 -51
-7 c-28 -3 -67 -8 -87 -11 l-36 -5 -16 108 c-37 249 -88 625 -85 628 5 4 398
43 619 60 204 17 453 31 577 34 l72 1 0 -133z"/>
<path d="M3088 5414 c-412 -74 -969 -209 -1028 -248 -46 -31 -71 -73 -72 -124
0 -20 39 -194 88 -386 66 -263 93 -355 110 -376 l23 -27 -111 -197 c-62 -108
-115 -193 -118 -189 -7 8 -70 221 -70 234 0 4 11 10 25 13 67 17 124 108 109
173 -18 78 -176 662 -185 684 -14 36 -56 75 -103 94 -37 16 -41 15 -145 -16
-227 -69 -711 -245 -996 -363 -128 -53 -178 -96 -190 -164 -6 -36 7 -83 106
-374 62 -183 121 -345 131 -361 30 -43 72 -59 141 -55 l61 3 49 -150 c115
-359 320 -1006 376 -1185 l60 -195 -39 -35 c-43 -38 -60 -73 -60 -123 0 -18
53 -187 117 -377 127 -374 135 -389 211 -409 48 -13 36 -16 307 61 116 32 334
91 485 130 151 38 287 76 302 84 36 19 69 68 75 112 3 27 -22 135 -92 392 -53
195 -104 368 -114 385 -22 38 -86 75 -132 75 -33 0 -37 3 -49 43 -7 23 -34
115 -60 204 l-48 163 34 9 c33 9 40 4 597 -412 482 -362 658 -499 924 -719 46
-39 110 -63 141 -54 24 7 305 33 492 46 466 31 1241 31 1550 -1 58 -5 119 -8
137 -4 38 7 88 46 108 85 19 36 118 743 112 798 -6 53 -51 105 -111 127 -169
61 -1185 69 -1957 15 l-147 -11 -618 437 c-341 240 -623 440 -627 444 -5 4 98
177 228 384 232 367 238 376 274 381 92 15 128 28 159 58 47 45 56 89 38 189
-9 46 -38 209 -66 363 -28 154 -53 288 -56 297 -16 53 -97 109 -156 107 -18 0
-117 -16 -220 -35z m311 -408 c35 -196 62 -358 59 -361 -2 -2 -46 -11 -97 -19
-52 -9 -95 -17 -96 -18 -1 -2 -130 -207 -287 -457 l-286 -454 46 -32 c26 -17
342 -241 702 -496 l655 -464 50 3 c28 1 113 7 190 12 519 35 1434 38 1738 6
76 -7 140 -16 141 -17 5 -5 -99 -738 -105 -743 -3 -3 -43 -1 -89 4 -47 5 -230
14 -408 21 -454 18 -1025 0 -1523 -47 l-177 -17 -98 85 c-159 136 -308 251
-854 660 -283 212 -535 402 -560 422 -25 19 -52 36 -60 36 -8 -1 -69 -16 -135
-34 -86 -23 -119 -37 -118 -47 10 -53 193 -654 199 -654 5 0 37 6 72 14 34 8
64 12 66 10 2 -2 45 -157 95 -344 51 -187 94 -345 96 -351 2 -7 -90 -35 -243
-74 -136 -35 -364 -96 -506 -136 -143 -41 -260 -73 -261 -71 -6 7 -225 661
-225 672 0 6 29 20 65 30 36 9 65 22 65 27 0 24 -511 1648 -564 1795 -3 8 -32
1 -91 -22 -60 -24 -87 -30 -90 -22 -3 7 -52 153 -110 326 -80 239 -102 317
-93 323 22 14 455 183 623 243 181 65 538 185 541 182 4 -4 184 -672 184 -683
0 -6 -36 -22 -80 -34 -45 -13 -82 -26 -85 -29 -2 -4 40 -159 94 -346 l98 -338
247 433 c135 238 244 435 242 437 -2 2 -32 -3 -66 -12 -35 -9 -66 -13 -70 -8
-4 4 -44 155 -89 335 -45 180 -84 334 -87 342 -9 23 640 177 1032 245 93 16
174 28 179 27 6 -1 39 -163 74 -360z"/>
<path d="M7020 5426 c-63 -48 -68 -64 -136 -444 -35 -196 -64 -370 -64 -385 0
-64 55 -131 120 -144 19 -3 30 -12 30 -22 0 -9 -71 -372 -159 -806 -87 -435
-161 -806 -165 -825 -5 -32 -11 -37 -50 -48 -46 -12 -99 -50 -117 -84 -6 -11
-31 -128 -55 -261 -91 -495 -94 -512 -82 -554 11 -42 40 -78 78 -98 14 -7 163
-32 330 -55 168 -22 387 -54 488 -70 209 -34 233 -35 270 -16 65 34 70 46 169
427 51 199 93 375 93 391 0 48 -26 96 -69 125 -24 17 -38 34 -36 43 2 8 47
206 100 440 126 562 270 1179 277 1186 3 3 106 -22 227 -55 122 -34 224 -61
226 -61 11 0 2 -35 -67 -265 -39 -132 -142 -487 -228 -790 l-157 -550 -31 3
c-17 2 -44 -3 -60 -12 -33 -17 -87 -75 -96 -103 -50 -160 -186 -689 -186 -723
0 -50 25 -100 64 -125 14 -9 190 -59 393 -110 202 -51 422 -110 488 -131 183
-57 227 -57 282 -4 34 33 50 75 194 502 82 241 83 246 70 289 -8 27 -29 59
-54 83 l-40 38 62 202 c34 110 195 617 356 1126 161 509 301 951 310 982 28
99 -1 165 -94 212 -138 70 -686 259 -1075 371 -507 146 -1303 327 -1501 342
-64 4 -73 3 -105 -21z m256 -87 c501 -91 1088 -237 1599 -396 337 -105 795
-275 795 -295 0 -13 -70 -235 -337 -1073 -211 -663 -433 -1376 -433 -1390 0
-6 29 -21 65 -33 36 -13 65 -29 65 -34 0 -6 -45 -144 -101 -307 -56 -163 -106
-311 -112 -329 -6 -17 -14 -32 -19 -32 -5 0 -69 18 -141 40 -141 42 -503 137
-730 190 -112 27 -136 36 -133 49 3 9 46 169 97 356 51 187 93 341 94 342 0 1
34 -6 74 -17 52 -13 73 -15 76 -7 2 7 80 282 174 612 93 330 213 744 265 919
53 176 94 321 93 322 -9 9 -710 195 -720 191 -7 -3 -30 -78 -51 -168 -192
-825 -396 -1719 -396 -1739 0 -5 32 -14 71 -20 65 -11 70 -14 65 -34 -3 -11
-45 -172 -93 -356 -48 -184 -88 -336 -89 -338 -1 -2 -87 10 -191 27 -152 25
-448 66 -761 107 -34 4 -42 9 -39 22 3 9 33 176 68 370 l64 354 72 -7 c40 -4
73 -5 73 -3 0 1 70 350 155 773 85 424 171 856 191 960 19 105 37 197 40 206
4 13 -11 18 -86 28 -55 8 -90 17 -90 24 0 17 119 689 125 705 6 17 10 16 201
-19z"/>
<path d="M5100 4295 l0 -105 100 0 100 0 0 105 0 105 -100 0 -100 0 0 -105z"/>
<path d="M3720 4310 c-19 -4 -101 -20 -181 -35 l-146 -27 -172 -269 c-94 -148
-172 -273 -174 -278 -1 -5 196 -149 438 -320 242 -171 441 -305 442 -298 5 30
-153 1231 -162 1233 -5 1 -26 -2 -45 -6z"/>
<path d="M6601 4238 c-26 -185 -27 -165 11 -171 18 -4 61 -9 94 -13 72 -7 64
-17 89 121 9 50 18 97 21 106 3 13 -12 18 -85 27 -48 7 -95 12 -103 12 -12 0
-19 -20 -27 -82z"/>
<path d="M8122 3967 c-19 -73 -157 -667 -232 -994 -39 -172 -69 -317 -66 -321
6 -10 115 -36 122 -29 2 2 45 148 95 323 49 175 135 474 190 663 56 189 97
347 92 351 -8 8 -161 50 -180 50 -6 0 -15 -19 -21 -43z"/>
</g>
</svg>
